<?xml version="1.0" encoding="iso-8859-1"?>
<!-- Uploaded to: SVG Repo, www.svgrepo.com, Generator: SVG Repo Mixer Tools -->
<svg fill="#000000" height="800px" width="800px" version="1.1" id="Layer_1" xmlns="http://www.w3.org/2000/svg" xmlns:xlink="http://www.w3.org/1999/xlink" 
	 viewBox="0 0 512.088 512.088" xml:space="preserve">
<g transform="translate(-1)">
	<g>
		<g>
			<path d="M396.177,317.936l-133.035-39.659c-3.977-1.185-8.212-1.185-12.189,0L118.196,317.85
				c-11.291,3.366-17.716,15.247-14.35,26.539c3.366,11.291,15.247,17.716,26.539,14.35l126.663-37.757l126.94,37.842
				c11.291,3.366,23.173-3.059,26.539-14.35C413.892,333.183,407.468,321.301,396.177,317.936z"/>
			<path d="M491.706,469.377h-45.949c26.255-31.464,44.328-62.68,55.289-93.082c10.39-28.818,13.207-53.061,11.637-71.181
				c-0.153-1.772-0.329-3.148-0.49-4.112c-1.341-8.035-7.14-14.606-14.947-16.933l-48.208-14.374V149.369
				c0-11.782-9.551-21.333-21.333-21.333H321.039V42.71c0-23.558-19.109-42.667-42.667-42.667h-42.667
				c-23.558,0-42.667,19.109-42.667,42.667v85.325H86.372c-11.782,0-21.333,9.551-21.333,21.333v120.317L16.79,284.069
				c-7.85,2.34-13.667,8.969-14.968,17.056c-0.148,0.923-0.31,2.234-0.45,3.919c-1.501,17.993,1.368,42.168,11.8,70.966
				c11.043,30.485,29.216,61.798,55.595,93.368H22.372c-11.782,0-21.333,9.551-21.333,21.333s9.551,21.333,21.333,21.333h95.531
				h75.136h128h75.605h95.061c11.782,0,21.333-9.551,21.333-21.333S503.488,469.377,491.706,469.377z M235.706,42.71h42.667v85.325
				h-42.667V42.71z M107.706,170.702h106.497c0.057,0,0.112,0.009,0.169,0.009h85.333c0.057,0,0.112-0.008,0.169-0.009h106.497
				v86.272l-143.238-42.708c-3.977-1.186-8.213-1.186-12.19,0l-143.239,42.7V170.702z M219.061,469.377l12.8-64h50.355l12.8,64
				H219.061z M338.528,469.377l-17.903-89.517c-1.994-9.972-10.75-17.15-20.919-17.15h-85.333c-10.169,0-18.925,7.178-20.919,17.15
				l-17.903,89.517h-48.933c-37.436-37.387-60.941-73.699-73.329-107.899c-5.874-16.215-8.653-30.011-9.408-40.963l213.159-63.544
				l164.157,48.945c0.146,0.047,0.294,0.088,0.441,0.131l48.607,14.493c-0.698,11.043-3.445,24.947-9.335,41.284
				c-12.293,34.098-35.683,70.291-72.979,107.552H338.528z"/>
		</g>
	</g>
</g>
</svg>