<?xml version="1.0" encoding="iso-8859-1"?>
<!-- Uploaded to: SVG Repo, www.svgrepo.com, Generator: SVG Repo Mixer Tools -->
<!DOCTYPE svg PUBLIC "-//W3C//DTD SVG 1.1//EN" "http://www.w3.org/Graphics/SVG/1.1/DTD/svg11.dtd">
<svg fill="#000000" height="800px" width="800px" version="1.1" id="Capa_1" xmlns="http://www.w3.org/2000/svg" xmlns:xlink="http://www.w3.org/1999/xlink" 
	 viewBox="0 0 297 297" xml:space="preserve">
<g>
	<path d="M202.253,120.272c-1.008-1.008-2.411-1.591-3.844-1.591c-1.424,0-2.827,0.583-3.845,1.591
		c-1.008,1.018-1.591,2.422-1.591,3.845c0,1.432,0.583,2.837,1.591,3.844c1.018,1.018,2.422,1.592,3.845,1.592
		c1.433,0,2.837-0.573,3.844-1.592c1.018-1.008,1.592-2.412,1.592-3.844C203.845,122.694,203.271,121.29,202.253,120.272z"/>
	<path d="M93.248,118.682c-3.005,0-5.436,2.441-5.436,5.436c0,3.005,2.431,5.436,5.436,5.436c3.005,0,5.436-2.431,5.436-5.436
		C98.684,121.122,96.252,118.682,93.248,118.682z"/>
	<path d="M119.539,118.682c-3.005,0-5.436,2.441-5.436,5.436c0,3.005,2.431,5.436,5.436,5.436c3.004,0,5.436-2.431,5.436-5.436
		C124.975,121.122,122.542,118.682,119.539,118.682z"/>
	<path d="M145.828,118.682c-2.995,0-5.436,2.441-5.436,5.436c0,3.005,2.441,5.436,5.436,5.436c3.005,0,5.436-2.431,5.436-5.436
		C151.264,121.122,148.833,118.682,145.828,118.682z"/>
	<path d="M172.118,118.682c-2.994,0-5.436,2.441-5.436,5.436c0,3.005,2.442,5.436,5.436,5.436c3.005,0,5.436-2.431,5.436-5.436
		C177.554,121.122,175.123,118.682,172.118,118.682z"/>
	<path d="M66.958,118.682c-1.424,0-2.827,0.583-3.845,1.591c-1.008,1.018-1.591,2.412-1.591,3.845c0,1.432,0.583,2.837,1.591,3.844
		c1.018,1.018,2.422,1.592,3.845,1.592c1.433,0,2.837-0.573,3.844-1.592c1.018-1.008,1.592-2.412,1.592-3.844
		c0-1.424-0.573-2.827-1.592-3.845C69.795,119.264,68.391,118.682,66.958,118.682z"/>
	<path d="M187.537,81.786c1.433,0,2.837-0.583,3.844-1.592c1.009-1.008,1.592-2.411,1.592-3.844s-0.583-2.837-1.592-3.845
		c-1.008-1.008-2.411-1.591-3.844-1.591s-2.827,0.583-3.845,1.591c-1.008,1.009-1.591,2.412-1.591,3.845s0.583,2.837,1.591,3.844
		C184.71,81.203,186.113,81.786,187.537,81.786z"/>
	<path d="M160.189,81.786c3.005,0,5.446-2.431,5.446-5.436c0-3.005-2.441-5.436-5.446-5.436c-2.995,0-5.426,2.431-5.426,5.436
		C154.763,79.355,157.194,81.786,160.189,81.786z"/>
	<circle cx="132.851" cy="76.35" r="5.436"/>
	<path d="M105.504,81.786c1.433,0,2.837-0.583,3.844-1.592c1.018-1.018,1.592-2.411,1.592-3.844s-0.573-2.837-1.592-3.845
		c-1.008-1.008-2.411-1.591-3.844-1.591c-1.433,0-2.827,0.583-3.845,1.591c-1.008,1.009-1.591,2.412-1.591,3.845
		s0.583,2.837,1.591,3.844C102.677,81.203,104.08,81.786,105.504,81.786z"/>
	<path d="M295.665,143.539c-1.768-3.047-5.026-4.922-8.549-4.922H256.23V99.742c0-5.458-4.425-9.884-9.884-9.884h-22.732V50.653
		c0-5.458-4.425-9.884-9.884-9.884H93.152v-6.424c0-5.458-4.425-9.884-9.884-9.884H50.653c-5.458,0-9.884,4.425-9.884,9.884v55.513
		h-6.424c-5.458,0-9.884,4.425-9.884,9.884v38.875H9.884c-3.101,0-6.023,1.456-7.89,3.932c-1.868,2.476-2.465,5.685-1.613,8.666
		l27.254,95.388c4.363,15.27,18.501,25.935,34.382,25.935H206.87c12.8,0,24.696-6.904,31.047-18.018l57.781-101.117
		C297.446,150.344,297.433,146.586,295.665,143.539z M203.848,60.537v29.156H93.152V60.537H203.848z M60.537,44.229h12.849v6.424
		v39.04H60.537V44.229z M44.229,109.625h192.234v28.991H44.229V109.625z M270.086,158.384l-7.342,12.849H26.657l-3.671-12.849
		H270.086z M220.754,244.714c-2.84,4.97-8.16,8.057-13.884,8.057H62.016c-7.102,0-13.425-4.769-15.375-11.598l-14.336-50.174
		h219.143L220.754,244.714z"/>
	<path d="M73.385,196.435c-12.807,0-23.226,10.419-23.226,23.226s10.419,23.226,23.226,23.226s23.226-10.419,23.226-23.226
		S86.192,196.435,73.385,196.435z M73.385,229.051c-5.177,0-9.389-4.212-9.389-9.389s4.212-9.389,9.389-9.389
		c5.177,0,9.389,4.212,9.389,9.389S78.563,229.051,73.385,229.051z"/>
</g>
</svg>